<?xml version="1.0" encoding="UTF-8"?>
<svg xmlns="http://www.w3.org/2000/svg" xmlns:xlink="http://www.w3.org/1999/xlink" width="1133.858268pt" height="1133.858268pt" viewBox="0 0 1133.858268 1133.858268" version="1.1">
<g id="surface331">
<path style=" stroke:none;fill-rule:nonzero;fill:rgb(50%,50%,50%);fill-opacity:1;" d="M 0 0 L 1133.859375 0 L 1133.859375 1133.859375 L 0 1133.859375 Z M 0 0 "/>
<path style=" stroke:none;fill-rule:nonzero;fill:rgb(100%,100%,100%);fill-opacity:1;" d="M 0 0 L 1133.859375 0 L 1133.859375 1133.859375 L 0 1133.859375 Z M 0 0 "/>
<path style=" stroke:none;fill-rule:nonzero;fill:rgb(0%,0%,0%);fill-opacity:1;" d="M 0 0 L 1133.859375 0 L 1133.859375 1133.859375 L 0 1133.859375 Z M 0 0 "/>
<path style=" stroke:none;fill-rule:nonzero;fill:rgb(100%,100%,100%);fill-opacity:1;" d="M 161.980469 161.980469 L 485.9375 161.980469 L 485.9375 485.9375 L 161.980469 485.9375 Z M 161.980469 161.980469 "/>
<path style=" stroke:none;fill-rule:nonzero;fill:rgb(100%,100%,100%);fill-opacity:1;" d="M 647.917969 323.960938 L 971.878906 323.960938 L 971.878906 971.878906 L 809.898438 971.878906 L 809.898438 485.9375 L 647.917969 485.9375 Z M 647.917969 323.960938 "/>
<path style=" stroke:none;fill-rule:nonzero;fill:rgb(100%,100%,100%);fill-opacity:1;" d="M 323.960938 647.917969 L 647.917969 647.917969 L 647.917969 971.878906 L 323.960938 971.878906 Z M 323.960938 647.917969 "/>
</g>
</svg>
