<?xml version="1.0" encoding="UTF-8"?>
<svg xmlns="http://www.w3.org/2000/svg" xmlns:xlink="http://www.w3.org/1999/xlink" width="1417.322835pt" height="1417.322835pt" viewBox="0 0 1417.322835 1417.322835" version="1.1">
<g id="surface366">
<path style=" stroke:none;fill-rule:nonzero;fill:rgb(50%,50%,50%);fill-opacity:1;" d="M 0 0 L 1417.324219 0 L 1417.324219 1417.324219 L 0 1417.324219 Z M 0 0 "/>
<path style=" stroke:none;fill-rule:nonzero;fill:rgb(100%,100%,100%);fill-opacity:1;" d="M 0 0 L 1417.324219 0 L 1417.324219 1417.324219 L 0 1417.324219 Z M 0 0 "/>
<path style=" stroke:none;fill-rule:nonzero;fill:rgb(0%,0%,0%);fill-opacity:1;" d="M 0 0 L 1417.324219 0 L 1417.324219 1417.324219 L 0 1417.324219 Z M 0 0 "/>
<path style=" stroke:none;fill-rule:nonzero;fill:rgb(100%,100%,100%);fill-opacity:1;" d="M 1012.375 202.476562 L 1214.847656 202.476562 L 1214.847656 1214.847656 L 1012.375 1214.847656 L 1012.375 1012.375 L 809.898438 1012.375 L 809.898438 607.425781 L 1012.375 607.425781 Z M 1012.375 202.476562 "/>
<path style=" stroke:none;fill-rule:nonzero;fill:rgb(100%,100%,100%);fill-opacity:1;" d="M 202.476562 404.949219 L 404.949219 404.949219 L 404.949219 1012.375 L 202.476562 1012.375 Z M 202.476562 404.949219 "/>
<path style=" stroke:none;fill-rule:nonzero;fill:rgb(100%,100%,100%);fill-opacity:1;" d="M 607.425781 1012.375 L 809.898438 1012.375 L 809.898438 1214.847656 L 607.425781 1214.847656 Z M 607.425781 1012.375 "/>
</g>
</svg>
