<?xml version="1.0" encoding="UTF-8"?>
<svg xmlns="http://www.w3.org/2000/svg" xmlns:xlink="http://www.w3.org/1999/xlink" width="850.393701pt" height="850.393701pt" viewBox="0 0 850.393701 850.393701" version="1.1">
<g id="surface241">
<path style=" stroke:none;fill-rule:nonzero;fill:rgb(50%,50%,50%);fill-opacity:1;" d="M 0 0 L 850.394531 0 L 850.394531 850.394531 L 0 850.394531 Z M 0 0 "/>
<path style=" stroke:none;fill-rule:nonzero;fill:rgb(100%,100%,100%);fill-opacity:1;" d="M 0 0 L 850.394531 0 L 850.394531 850.394531 L 0 850.394531 Z M 0 0 "/>
<path style=" stroke:none;fill-rule:nonzero;fill:rgb(0%,0%,0%);fill-opacity:1;" d="M 0 0 L 850.394531 0 L 850.394531 850.394531 L 0 850.394531 Z M 0 0 "/>
<path style=" stroke:none;fill-rule:nonzero;fill:rgb(100%,100%,100%);fill-opacity:1;" d="M 242.96875 121.484375 L 364.453125 121.484375 L 364.453125 485.9375 L 242.96875 485.9375 L 242.96875 364.453125 L 121.484375 364.453125 L 121.484375 242.96875 L 242.96875 242.96875 Z M 242.96875 121.484375 "/>
<path style=" stroke:none;fill-rule:nonzero;fill:rgb(100%,100%,100%);fill-opacity:1;" d="M 485.9375 121.484375 L 607.425781 121.484375 L 607.425781 485.9375 L 485.9375 485.9375 Z M 485.9375 121.484375 "/>
<path style=" stroke:none;fill-rule:nonzero;fill:rgb(100%,100%,100%);fill-opacity:1;" d="M 607.425781 485.9375 L 728.910156 485.9375 L 728.910156 728.910156 L 607.425781 728.910156 Z M 607.425781 485.9375 "/>
<path style=" stroke:none;fill-rule:nonzero;fill:rgb(100%,100%,100%);fill-opacity:1;" d="M 364.453125 607.425781 L 485.9375 607.425781 L 485.9375 728.910156 L 364.453125 728.910156 Z M 364.453125 607.425781 "/>
</g>
</svg>
