<?xml version="1.0" encoding="UTF-8"?>
<svg xmlns="http://www.w3.org/2000/svg" xmlns:xlink="http://www.w3.org/1999/xlink" width="2834.645669pt" height="2834.645669pt" viewBox="0 0 2834.645669 2834.645669" version="1.1">
<g id="surface476">
<path style=" stroke:none;fill-rule:nonzero;fill:rgb(50%,50%,50%);fill-opacity:1;" d="M 0 0 L 2834.644531 0 L 2834.644531 2834.644531 L 0 2834.644531 Z M 0 0 "/>
<path style=" stroke:none;fill-rule:nonzero;fill:rgb(100%,100%,100%);fill-opacity:1;" d="M 0 0 L 2834.644531 0 L 2834.644531 2834.644531 L 0 2834.644531 Z M 0 0 "/>
<path style=" stroke:none;fill-rule:nonzero;fill:rgb(0%,0%,0%);fill-opacity:1;" d="M 0 0 L 2834.644531 0 L 2834.644531 2834.644531 L 0 2834.644531 Z M 0 0 "/>
<path style=" stroke:none;fill-rule:nonzero;fill:rgb(100%,100%,100%);fill-opacity:1;" d="M 1619.796875 404.949219 L 2024.746094 404.949219 L 2024.746094 809.898438 L 1619.796875 809.898438 Z M 1619.796875 404.949219 "/>
<path style=" stroke:none;fill-rule:nonzero;fill:rgb(100%,100%,100%);fill-opacity:1;" d="M 404.949219 809.898438 L 1619.796875 809.898438 L 1619.796875 1214.847656 L 2024.746094 1214.847656 L 2024.746094 809.898438 L 2429.695312 809.898438 L 2429.695312 1619.796875 L 1619.796875 1619.796875 L 1619.796875 2429.695312 L 809.898438 2429.695312 L 809.898438 1619.796875 L 1214.847656 1619.796875 L 1214.847656 1214.847656 L 404.949219 1214.847656 Z M 404.949219 809.898438 "/>
<path style=" stroke:none;fill-rule:nonzero;fill:rgb(100%,100%,100%);fill-opacity:1;" d="M 2024.746094 2024.746094 L 2429.695312 2024.746094 L 2429.695312 2429.695312 L 2024.746094 2429.695312 Z M 2024.746094 2024.746094 "/>
</g>
</svg>
